<?xml version="1.0" encoding="UTF-8" standalone="no"?>
<!-- Created with Inkscape (http://www.inkscape.org/) -->

<svg
   xmlns:dc="http://purl.org/dc/elements/1.1/"
   xmlns:cc="http://creativecommons.org/ns#"
   xmlns:rdf="http://www.w3.org/1999/02/22-rdf-syntax-ns#"
   xmlns:svg="http://www.w3.org/2000/svg"
   xmlns="http://www.w3.org/2000/svg"
   xmlns:sodipodi="http://sodipodi.sourceforge.net/DTD/sodipodi-0.dtd"
   xmlns:inkscape="http://www.inkscape.org/namespaces/inkscape"
   version="1.1"
   id="svg815"
   width="640"
   height="640"
   viewBox="0 0 640 640"
   sodipodi:docname="terranlogocolour.svg"
   inkscape:version="0.92.3 (2405546, 2018-03-11)">
  <metadata
     id="metadata821">
    <rdf:RDF>
      <cc:Work
         rdf:about="">
        <dc:format>image/svg+xml</dc:format>
        <dc:type
           rdf:resource="http://purl.org/dc/dcmitype/StillImage" />
        <dc:title></dc:title>
      </cc:Work>
    </rdf:RDF>
  </metadata>
  <defs
     id="defs819" />
  <sodipodi:namedview
     pagecolor="#ffffff"
     bordercolor="#666666"
     borderopacity="1"
     objecttolerance="10"
     gridtolerance="10"
     guidetolerance="10"
     inkscape:pageopacity="0"
     inkscape:pageshadow="2"
     inkscape:window-width="1920"
     inkscape:window-height="1017"
     id="namedview817"
     showgrid="false"
     inkscape:zoom="1.325"
     inkscape:cx="320"
     inkscape:cy="320"
     inkscape:window-x="-8"
     inkscape:window-y="-8"
     inkscape:window-maximized="1"
     inkscape:current-layer="svg815" />
  <path
     style="fill:#ce5f05;stroke-width:1.06666672"
     d="m 56.739734,563.01251 c -0.99905,-0.99906 -1.81646,-2.76252 -1.81646,-3.91879 0,-2.36351 92.409546,-180.23879 94.273066,-181.4623 2.75474,-1.80864 7.66487,-0.52493 15.68386,4.10042 10.17102,5.86664 11.64308,7.21497 11.64308,10.6645 0,1.44588 -15.84,33.37222 -35.2,70.94745 -19.36,37.57522 -35.20001,68.51794 -35.20001,68.76161 0,0.24367 13.16572,0.44303 29.25715,0.44303 31.99309,0 32.6728,0.12965 32.55343,6.20952 -0.0793,4.03722 -8.75132,22.59545 -11.19857,23.965 -1.32172,0.73967 -18.89421,1.30871 -50.10734,1.6226 -44.243156,0.44492 -48.216406,0.33876 -49.888206,-1.33304 z m 471.070516,0.503 c -15.93882,-0.3119 -29.22531,-0.81357 -29.52552,-1.11483 -1.58087,-1.58641 -10.29241,-22.47421 -10.27846,-24.64482 0.037,-5.75898 -0.2646,-5.69971 31.93309,-6.2741 l 29.89641,-0.53333 -31.03924,-60.26667 c -41.62962,-80.82929 -39.78307,-77.0225 -38.9572,-80.31299 0.53322,-2.1245 3.14326,-4.15884 11.15791,-8.69677 10.10952,-5.72407 13.31739,-6.76522 15.7358,-5.10724 2.04559,1.40239 94.32357,179.60952 94.32357,182.15757 0,1.36055 -0.75428,3.228 -1.67619,4.1499 -1.8185,1.8185 -8.46122,1.8782 -71.57017,0.64328 z M 205.9328,558.60557 c -0.92191,-0.9219 -1.67619,-2.65944 -1.67619,-3.86119 0,-1.20175 13.2673,-31.52746 29.48288,-67.39047 16.21557,-35.86302 30.84571,-68.22822 32.51138,-71.92267 l 3.02851,-6.71718 -4.71594,3.38674 c -3.2431,2.32901 -5.53633,3.22991 -7.34273,2.8846 -2.4737,-0.47288 -2.67022,-0.15452 -3.37205,5.46266 -1.18078,9.45062 -4.40763,13.96703 -9.97907,13.96703 -3.80667,0 -5.42178,-2.80693 -5.25534,-9.13331 0.18267,-6.94259 -2.31695,-11.1163 -7.55765,-12.61931 -9.73591,-2.79222 -19.7572,6.79097 -23.00893,22.00304 -0.74289,3.47537 -4.75656,4.89078 -8.73217,3.07937 -7.35551,-3.3514 -9.04731,-21.5854 -3.12571,-33.68871 5.03889,-10.29913 12.76398,-14.11258 33.51206,-16.54301 10.33238,-1.21033 17.42908,-3.89991 19.24546,-7.29383 0.56578,-1.05718 0.76236,-3.90782 0.43683,-6.33479 -0.5297,-3.94919 0.0885,-5.62349 5.88596,-15.94105 7.66261,-13.63691 10.29437,-22.21437 8.6685,-28.25239 -1.93121,-7.17199 -9.32539,-9.65263 -16.97735,-5.69565 -9.81378,5.07491 -18.94159,17.10963 -25.17124,33.18747 -3.19269,8.23985 -4.36717,10.16733 -6.52542,10.70901 -3.76786,0.94568 -5.87643,-0.30566 -19.00798,-11.28033 -14.02492,-11.72129 -16.53618,-14.37413 -16.52435,-17.45599 0.005,-1.28728 2.95263,-6.42052 6.55043,-11.40718 19.75903,-27.38663 18.97381,-50.5481 -1.70736,-50.36149 -14.76741,0.13325 -33.57266,13.91294 -45.68763,33.47797 -2.63245,4.25127 -5.46116,7.52889 -6.82078,7.90323 -2.94374,0.81048 -6.37461,-0.25281 -7.12496,-2.20818 -0.31811,-0.829 -0.91417,-14.86472 -1.32457,-31.1905 -0.658,-26.17508 -0.54875,-29.88069 0.92444,-31.35387 1.09319,-1.09319 4.59441,-1.89608 10.12988,-2.32294 11.70066,-0.90229 19.44249,-3.99475 24.56256,-9.81147 4.98986,-5.66878 6.62565,-10.71322 6.61192,-20.38984 -0.0273,-19.24508 -13.15952,-28.79496 -33.96108,-24.69682 -4.74477,0.93476 -11.34023,2.9418 -14.65658,4.46007 -3.31634,1.51828 -6.89743,2.7605 -7.95796,2.7605 -2.71509,0 -5.28064,-2.8852 -5.28064,-5.93857 0,-3.07366 17.87218,-46.51182 19.6031,-47.6451 0.6583,-0.43102 33.68263,-0.79102 73.38739,-0.8 78.45371,-0.0178 75.54286,-0.23826 75.54286,5.72266 0,3.08789 -1.43146,4.75139 -8.34147,9.69369 -12.48231,8.92781 -28.5891,31.27501 -27.74177,38.49003 0.54028,4.60056 2.34069,4.24392 8.09703,-1.60393 5.69554,-5.7861 9.32179,-6.83081 12.53988,-3.61272 1.74586,1.74585 1.78854,6.19662 0.0964,10.04926 -0.60122,1.36881 -0.1595,1.6032 2.3321,1.23751 4.76179,-0.69888 7.04347,2.2203 5.98489,7.65706 -2.70528,13.89417 1.13503,20.1591 13.23572,21.59226 6.80335,0.80576 14.19863,-2.32846 17.23145,-7.30292 2.74374,-4.50031 2.73202,-7.33165 -0.045,-10.86204 -2.55592,-3.24934 -5.86729,-3.58478 -10.29608,-1.043 -4.09959,2.35283 -8.56307,1.25343 -9.46265,-2.33076 -1.24876,-4.97547 0.58693,-12.10646 4.16577,-16.18255 3.30585,-3.76514 10.24389,-7.71726 13.63009,-7.76412 0.93118,-0.0129 3.66474,-1.89904 6.07458,-4.19147 10.81569,-10.28871 34.2854,-12.64237 47.88657,-4.8023 6.00296,3.46027 9.4375,10.68669 11.42089,24.03005 0.83876,5.64282 2.31715,11.7915 3.28531,13.66371 2.39859,4.63835 8.83928,11.61707 12.43981,13.47897 4.76136,2.46219 12.03474,1.97251 15.54032,-1.04628 2.89325,-2.49149 2.99281,-2.91854 2.99281,-12.83719 0,-11.21581 0.74299,-12.6961 6.03099,-12.01592 2.58404,0.33239 2.74687,0.14291 1.86667,-2.1722 -1.40945,-3.70711 -1.18478,-6.2913 0.71187,-8.18794 2.88408,-2.88408 6.47518,-1.95219 12.25352,3.17981 3.00718,2.67081 6.02321,4.66218 6.70228,4.42527 2.56311,-0.89419 1.1645,-9.04749 -2.58861,-15.09051 -5.43487,-8.75089 -16.54086,-21.34505 -23.2836,-26.40356 -7.3321,-5.50065 -8.62645,-7.00832 -8.62645,-10.04821 0,-5.95786 -2.86309,-5.73899 75.07232,-5.73899 55.71655,0 72.11668,0.29752 73.49797,1.33334 2.13792,1.60322 19.96304,43.82368 19.96304,47.28435 0,2.91454 -2.61706,5.78231 -5.2768,5.78231 -1.05843,0 -4.67976,-1.21855 -8.04742,-2.70788 -7.12253,-3.14992 -17.57003,-5.78713 -23.01551,-5.80969 -5.70488,-0.0237 -14.32495,2.87152 -18.16147,6.09975 -5.12658,4.31374 -7.31463,10.12252 -7.34204,19.49153 -0.0268,9.15909 1.06511,13.80283 4.38464,18.64737 4.80079,7.00629 13.19147,10.83367 26.1522,11.92926 4.66838,0.39462 8.64669,1.30899 9.52748,2.18979 1.23412,1.23412 1.51226,7.07534 1.51226,31.75987 0,32.61769 -0.16982,33.62237 -5.6762,33.58367 -3.3553,-0.0236 -4.02402,-0.6784 -10.33189,-10.117 -8.67372,-12.97868 -17.99936,-21.73359 -28.88019,-27.11273 -15.40023,-7.61336 -25.85807,-6.04676 -30.2416,4.53025 -1.85755,4.48206 -1.95818,5.83047 -0.89735,12.02356 1.53814,8.97957 6.92511,20.20961 14.52852,30.28705 6.13232,8.12769 7.08427,10.99856 4.69871,14.17008 -2.60913,3.46873 -28.04269,24.2529 -30.47866,24.90699 -4.89173,1.3135 -7.08132,-0.95183 -10.70111,-11.07116 -5.43614,-15.1971 -12.28277,-24.59928 -22.86172,-31.39497 -9.63544,-6.18961 -18.05941,-3.61564 -19.43758,5.93922 -0.88179,6.11345 1.37024,12.65908 9.11128,26.48236 6.14636,10.97565 6.52797,12.0531 5.85601,16.53406 -0.6106,4.07181 -0.36174,5.1734 1.65334,7.31834 3.14183,3.34434 6.63605,4.37759 21.2523,6.28443 20.05282,2.6161 27.42386,7.47008 32.16102,21.17871 5.20071,15.05011 -1.10228,32.07525 -10.74208,29.01569 -1.2436,-0.3947 -2.47417,-1.95079 -2.81764,-3.56297 -3.24122,-15.21371 -13.85901,-25.06318 -23.53969,-21.83629 -4.88539,1.62847 -7.2333,5.87528 -7.28056,13.1689 -0.0441,6.79655 -1.11319,8.42411 -5.55434,8.45548 -5.8553,0.0414 -8.53512,-3.76854 -9.56214,-13.59445 l -0.64778,-6.19762 -3.45525,0.40338 c -2.71618,0.3171 -4.30634,-0.34387 -7.43419,-3.09018 l -3.97894,-3.49354 1.5752,3.66103 c 0.86636,2.01358 15.54934,34.53121 32.62886,72.26141 17.07951,37.7302 31.05367,69.49591 31.05367,70.59047 0,2.78064 -2.86251,5.3425 -5.96949,5.3425 -1.43941,0 -5.84512,-1.62457 -9.79047,-3.61013 -15.76866,-7.93588 -33.73427,-11.30157 -49.52005,-9.27712 -5.23151,0.67091 -13.82246,2.21233 -19.09097,3.42537 -5.26852,1.21305 -10.64035,1.93471 -11.93741,1.60369 -1.90889,-0.48717 -4.88202,-6.30688 -15.60249,-30.54096 -7.28431,-16.4665 -13.56691,-29.563 -13.96132,-29.1033 -0.39441,0.45968 -6.41876,13.73357 -13.38744,29.49753 -9.23138,20.88243 -13.29325,28.94557 -14.96533,29.70743 -1.67747,0.76429 -5.99213,0.24256 -16.03501,-1.93898 -25.13164,-5.45916 -44.54945,-3.49681 -64.42094,6.51031 -8.11146,4.08487 -11.75298,4.60654 -14.30956,2.04997 z m 78.87543,-438.45791 c -0.95376,-0.95376 -1.58805,-2.80277 -1.40953,-4.1089 0.17852,-1.30613 9.44458,-20.214208 20.59124,-42.017924 21.26685,-41.599564 21.84075,-42.437857 27.36546,-39.972659 2.4926,1.112228 42.44052,78.375953 42.47811,82.157393 0.049,4.92967 -2.26265,5.67619 -17.5769,5.67619 -10.53117,0 -14.61529,-0.37453 -15.65714,-1.4358 -0.77524,-0.78969 -3.54827,-5.82969 -6.16228,-11.2 -2.61402,-5.37031 -5.08951,-9.764198 -5.50108,-9.764198 -0.41159,0 -3.18623,4.746108 -6.1659,10.546908 -2.97967,5.8008 -6.18345,10.8408 -7.1195,11.2 -0.93605,0.3592 -7.86837,0.65309 -15.40515,0.65309 -11.22941,0 -14.01629,-0.31306 -15.43733,-1.7341 z"
     id="path825"
     inkscape:connector-curvature="0" />
</svg>
