<?xml version="1.0" encoding="UTF-8" standalone="no"?>
<!-- Created with Inkscape (http://www.inkscape.org/) -->

<svg
   xmlns:dc="http://purl.org/dc/elements/1.1/"
   xmlns:cc="http://creativecommons.org/ns#"
   xmlns:rdf="http://www.w3.org/1999/02/22-rdf-syntax-ns#"
   xmlns:svg="http://www.w3.org/2000/svg"
   xmlns="http://www.w3.org/2000/svg"
   xmlns:sodipodi="http://sodipodi.sourceforge.net/DTD/sodipodi-0.dtd"
   xmlns:inkscape="http://www.inkscape.org/namespaces/inkscape"
   version="1.1"
   id="svg10"
   width="640"
   height="757.33331"
   viewBox="0 0 640 757.33331"
   sodipodi:docname="protosslogocolor.svg"
   inkscape:version="0.92.3 (2405546, 2018-03-11)">
  <metadata
     id="metadata16">
    <rdf:RDF>
      <cc:Work
         rdf:about="">
        <dc:format>image/svg+xml</dc:format>
        <dc:type
           rdf:resource="http://purl.org/dc/dcmitype/StillImage" />
        <dc:title></dc:title>
      </cc:Work>
    </rdf:RDF>
  </metadata>
  <defs
     id="defs14" />
  <sodipodi:namedview
     pagecolor="#ffffff"
     bordercolor="#666666"
     borderopacity="1"
     objecttolerance="10"
     gridtolerance="10"
     guidetolerance="10"
     inkscape:pageopacity="0"
     inkscape:pageshadow="2"
     inkscape:window-width="1920"
     inkscape:window-height="1017"
     id="namedview12"
     showgrid="false"
     inkscape:zoom="1.1197183"
     inkscape:cx="320"
     inkscape:cy="378.66666"
     inkscape:window-x="-8"
     inkscape:window-y="-8"
     inkscape:window-maximized="1"
     inkscape:current-layer="svg10" />
  <path
     style="fill:#fed800;stroke-width:1.0666666"
     d="m 190.38386,682.31194 c -4.06961,-4.37375 -15.8106,-29.04638 -20.10276,-42.24416 -8.35977,-25.7051 -11.78077,-51.47813 -10.9075,-82.1745 0.65573,-23.0497 2.84317,-37.69236 8.62884,-57.76134 5.98146,-20.74809 18.47061,-46.52091 26.9386,-55.59092 4.20161,-4.50033 7.41493,-4.55569 12.79405,-0.22045 6.49228,5.2324 20.35843,11.40568 28.8268,12.83385 18.55536,3.12931 32.52837,-6.21783 38.53224,-25.77581 2.74784,-8.95129 2.44683,-30.80632 -0.59217,-42.99411 -6.17455,-24.7628 -18.38371,-42.66553 -37.54067,-55.04728 -8.73644,-5.64664 -16.23842,-8.35472 -27.94525,-10.08775 -5.72674,-0.84776 -9.99573,-2.02591 -10.55788,-2.91371 -0.53432,-0.84388 -0.95082,-60.80443 -0.96007,-138.21428 -0.0147,-122.886185 0.15331,-136.893463 1.65986,-138.400008 1.74792,-1.747913 4.43622,-2.128913 7.29122,-1.033345 1.00759,0.386645 2.9992,4.956599 4.99727,11.466667 10.9676,35.734467 30.39242,72.712056 51.63331,98.290496 3.89744,4.69333 13.35352,15.36304 21.01349,23.71046 20.02092,21.81772 21.5074,24.28495 17.21651,28.57583 -1.89936,1.89936 -3.35263,1.78967 -12.99815,-0.98104 -15.65158,-4.49598 -28.72904,7.1619 -32.16063,28.66954 -2.94679,18.46916 4.89624,45.8536 18.65483,65.13454 15.02382,21.05399 37.84414,26.4083 51.36097,12.0508 11.0639,-11.75201 12.7891,-32.23155 4.73926,-56.25874 -3.78718,-11.30397 -3.8827,-12.15726 -1.61475,-14.4252 2.58774,-2.58774 6.42708,-2.01852 14.304,2.12069 20.46659,10.75489 36.23332,31.09278 45.43143,58.60311 4.7616,14.24129 6.1603,27.74237 3.18258,30.7201 -2.22281,2.2228 -4.53852,2.28474 -9.40461,0.25156 -6.6435,-2.77583 -14.07154,0.67682 -17.73433,8.24315 -4.96393,10.25411 -1.86394,23.83697 6.81141,29.84467 8.36148,5.79035 25.97582,7.42166 40.85005,3.78322 9.72356,-2.37853 22.8043,-13.29156 34.89145,-29.10937 24.21619,-31.69043 28.26156,-78.1359 10.64142,-122.17601 -4.35291,-10.87975 -4.32734,-14.42892 0.11198,-15.54312 4.13947,-1.03893 7.18577,0.91336 13.83334,8.86538 18.33306,21.93052 30.38223,47.942 35.23003,76.05376 2.33281,13.52767 2.62266,42.67561 0.56747,57.06666 -3.14451,22.01883 -14.34078,64.22489 -18.35196,69.18053 -1.82742,2.25771 -2.42421,2.29277 -47.99449,2.81947 l -46.14404,0.53333 -4.54853,7.46667 -4.54853,7.46666 45.83712,0.53334 c 48.85541,0.56845 47.83058,0.44767 47.87502,5.64249 0.0242,2.83057 -3.89894,9.99442 -5.89213,10.75929 -0.95297,0.36568 -22.93459,0.66488 -48.84801,0.66488 h -47.11533 l -4.5685,7.2 -4.56849,7.2 45.94394,0.53334 c 49.35964,0.57298 47.94116,0.39648 47.98186,5.97057 0.0168,2.3042 -8.1553,15.96723 -16.77654,28.04881 -23.25106,32.58344 -60.6004,67.74269 -99.4738,93.64086 -23.96397,15.96522 -29.70915,18.47822 -33.52381,14.66356 -2.5378,-2.53779 -2.15811,-4.0818 4.15389,-16.89183 17.35491,-35.22131 14.26808,-67.39611 -7.48712,-78.03994 -19.80175,-9.68809 -49.67741,8.10153 -73.57051,43.80796 -19.88281,29.71334 -31.00553,64.28128 -33.75583,104.90865 -0.88315,13.0457 -1.69315,18.94883 -2.74432,20 -2.38702,2.38703 -6.52496,1.75917 -9.50353,-1.44198 z m 30.85642,-259.93229 c -23.37035,-5.66304 -31.40774,-34.9376 -14.18189,-51.65471 11.56941,-11.22773 31.65358,-11.59762 44.46339,-0.81888 5.01618,4.22084 9.08263,12.77066 9.6935,20.38088 1.22743,15.29114 -8.07827,28.012 -23.49381,32.116 -6.63581,1.76662 -9.10896,1.76312 -16.48119,-0.0232 z"
     id="path36"
     inkscape:connector-curvature="0" />
</svg>
