<?xml version="1.0" encoding="UTF-8" standalone="no"?>
<!-- Created with Inkscape (http://www.inkscape.org/) -->

<svg
   xmlns:dc="http://purl.org/dc/elements/1.1/"
   xmlns:cc="http://creativecommons.org/ns#"
   xmlns:rdf="http://www.w3.org/1999/02/22-rdf-syntax-ns#"
   xmlns:svg="http://www.w3.org/2000/svg"
   xmlns="http://www.w3.org/2000/svg"
   xmlns:sodipodi="http://sodipodi.sourceforge.net/DTD/sodipodi-0.dtd"
   xmlns:inkscape="http://www.inkscape.org/namespaces/inkscape"
   version="1.1"
   id="svg815"
   width="793.59998"
   height="1122.1333"
   viewBox="0 0 793.59998 1122.1333"
   sodipodi:docname="zerglogocolour.svg"
   inkscape:version="0.92.3 (2405546, 2018-03-11)">
  <metadata
     id="metadata821">
    <rdf:RDF>
      <cc:Work
         rdf:about="">
        <dc:format>image/svg+xml</dc:format>
        <dc:type
           rdf:resource="http://purl.org/dc/dcmitype/StillImage" />
        <dc:title></dc:title>
      </cc:Work>
    </rdf:RDF>
  </metadata>
  <defs
     id="defs819" />
  <sodipodi:namedview
     pagecolor="#ffffff"
     bordercolor="#666666"
     borderopacity="1"
     objecttolerance="10"
     gridtolerance="10"
     guidetolerance="10"
     inkscape:pageopacity="0"
     inkscape:pageshadow="2"
     inkscape:window-width="1920"
     inkscape:window-height="1017"
     id="namedview817"
     showgrid="false"
     inkscape:zoom="0.75570344"
     inkscape:cx="396.79999"
     inkscape:cy="561.06665"
     inkscape:window-x="-8"
     inkscape:window-y="-8"
     inkscape:window-maximized="1"
     inkscape:current-layer="svg815" />
  <path
     style="fill:#7400cc;stroke-width:1.0666666;"
     d="m 244.71014,930.6767 c -46.68428,-2.51343 -90.86326,-15.9893 -117.06265,-35.70753 -13.38654,-10.075 -17.10858,-15.94692 -12.82414,-20.23137 2.37697,-2.37697 5.43889,-2.08495 10.74529,1.02481 11.70442,6.85924 33.29629,13.48269 50.45559,15.47756 18.23273,2.11967 39.98941,-1.76662 56.37547,-10.07006 13.7719,-6.97874 25.97353,-21.35371 30.62583,-36.08084 6.73492,-21.3198 1.00174,-43.56586 -15.78912,-61.26547 -14.54941,-15.33687 -36.57881,-22.97834 -55.15592,-19.13229 -26.75111,5.53833 -39.4534,25.05338 -34.85455,53.54847 1.00735,6.24169 -0.61195,8.95496 -5.34444,8.95496 -7.21021,0 -23.57589,-26.05935 -32.05302,-51.03859 -3.41782,-10.07119 -3.9081,-12.87556 -4.31729,-24.69474 -0.78622,-22.70962 1.33597,-25.9332 13.83746,-21.019 9.67588,3.80348 15.73658,4.4318 22.83732,2.36757 7.78961,-2.26451 14.33449,-8.3346 18.82793,-17.46205 3.03762,-6.17029 3.46659,-8.10039 3.46659,-15.59742 0,-7.48984 -0.39419,-9.26746 -3.16405,-14.2682 -7.74588,-13.98455 -28.22037,-24.49406 -41.79316,-21.45233 -10.82076,2.42498 -19.4429,8.47752 -26.15325,18.35894 -10.651279,15.6847 -20.149489,41.06587 -22.750159,60.79308 -0.74295,5.6356 -2.73775,8.28752 -6.21556,8.26308 -4.13765,-0.0291 -5.18166,-1.68191 -7.73579,-12.24691 -3.93754,-16.28743 -4.79624,-23.95755 -5.4339,-48.53676 -0.59646,-22.9915 1.30343,-53.24382 3.96442,-63.12596 1.51853,-5.63941 4.58654,-6.22259 12.96205,-2.46389 3.8226,1.71549 9.23246,3.14672 13.05351,3.45343 7.58518,0.60887 21.304599,-1.91958 27.998489,-5.16003 6.17249,-2.98806 12.5091,-9.61353 15.98067,-16.70917 2.45275,-5.01323 2.9134,-7.33834 2.9134,-14.70533 0,-7.7247 -0.40819,-9.57974 -3.48189,-15.8233 -3.99993,-8.12502 -9.67758,-13.10061 -19.18207,-16.81015 -4.90936,-1.9161 -8.31686,-2.36893 -18.343639,-2.43775 -12.22894,-0.0839 -12.37306,-0.0557 -20.8,4.07965 -13.87914,6.81084 -31.18202,25.97942 -41.0135,45.43584 -1.33401,2.64 -2.96099,5.15265 -3.61552,5.58367 -2.07531,1.36662 -5.77364,0.88035 -7.66135,-1.00736 -1.56334,-1.56334 -1.73379,-3.27649 -1.19396,-12 1.95085,-31.5252 13.33127,-63.77046 33.02276,-93.56662 13.20968,-19.98823 16.71845,-22.0324 23.93285,-13.94302 12.63635,14.16891 18.7274,17.22683 34.442989,17.29158 9.1103,0.0376 10.62411,-0.24678 14.99469,-2.81622 10.49472,-6.16983 19.07002,-19.21203 19.99999,-30.4181 0.98499,-11.8689 -10.80167,-28.17658 -25.63261,-35.46452 -16.43589,-8.07662 -39.429779,-4.67023 -63.544889,9.41375 -10.04552,5.86691 -17.00665,11.41426 -29.13443,23.21735 -10.69599,10.40964 -13.81137,11.89514 -17.40655,8.29997 -2.35358,-2.35358 -2.12708,-4.42207 1.58732,-14.49607 4.69925,-12.74504 10.68922,-25.13658 16.49794,-34.1295 12.29352,-19.03253 38.5436,-46.78204 54.28,-57.38049 14.820299,-9.98147 44.448429,-22.39628 50.077429,-20.98349 3.67407,0.92214 3.99721,2.66717 2.6499,14.31015 -1.45209,12.54828 -0.10582,20.86965 4.20539,25.9932 7.13927,8.48453 25.5202,11.85273 39.73673,7.28149 9.77109,-3.14182 14.6864,-6.81982 18.62242,-13.93468 3.01105,-5.44286 3.2,-6.47725 3.2,-17.51775 0,-10.70451 -0.2721,-12.32262 -3.10317,-18.45385 -3.83664,-8.309 -10.36007,-14.39546 -21.65686,-20.20618 -13.65255,-7.02246 -36.80043,-13.61806 -57.32832,-16.33475 -12.12976,-1.60528 -35.261559,-0.81378 -48.710699,1.66675 -11.71504,2.16068 -15.53817,1.67866 -16.48101,-2.0779 -1.05926,-4.22043 0.26752,-6.12488 9.2928,-13.33878 13.27035,-10.60701 27.8454,-19.81396 43.053929,-27.19685 27.67936,-13.43677 41.56531,-17.20776 69.51113,-18.87702 29.43115,-1.75798 60.43903,1.21143 64.03736,6.13244 1.95714,2.67655 1.71188,6.80342 -0.63286,10.64855 -1.10535,1.81266 -3.0839,6.24177 -4.39678,9.84245 -4.25764,11.67699 -1.78345,21.90776 7.56904,31.29798 6.94415,6.97217 12.70907,9.66306 22.00226,10.26996 19.2355,1.25618 36.08846,-9.09713 40.33304,-24.77789 2.66515,-9.84589 1.74729,-28.60177 -2.02159,-41.30949 -3.57642,-12.05884 -9.93791,-26.72428 -14.49616,-33.41875 -14.21673,-20.87938 -46.08711,-39.5432 -79.07952,-46.31025 -9.91956,-2.03459 -11.58044,-3.06658 -11.60959,-7.21356 -0.0276,-3.92673 2.62186,-5.32566 12.44432,-6.5707 38.99867,-4.94325 73.26902,-3.95767 107.82313,3.10089 24.53952,5.01282 46.48487,15.93344 66.12063,32.90348 7.84115,6.77665 9.55319,9.72638 8.37342,14.42695 -0.5473,2.18063 -2.08197,3.03995 -9.44896,5.29083 -17.55583,5.36392 -25.66104,13.62385 -28.44757,28.9906 -2.81468,15.52208 3.89869,29.37672 17.30748,35.71808 25.75407,12.17974 60.27717,-6.68415 73.88398,-40.37121 8.82949,-21.85962 9.96843,-49.58765 3.02152,-73.56001 -5.38896,-18.59616 -10.76624,-26.75489 -33.38394,-50.65212 -12.34342,-13.04171 -13.7691,-15.80851 -10.05805,-19.51956 2.70549,-2.705491 7.15372,-1.489101 23.02596,6.29655 29.89039,14.66183 61.47904,37.03299 85.96191,60.87841 6.65875,6.48539 14.46471,14.91162 17.34656,18.72495 13.7168,18.15039 28.81837,57.59104 24.50517,64 -0.83397,1.23921 -4.51351,1.75214 -16.31767,2.2747 -18.12617,0.80242 -23.77526,2.47018 -30.22967,8.9246 -9.1145,9.1145 -12.64482,27.96711 -8.06226,43.05419 3.09931,10.20379 7.63768,15.8565 16.165,20.13415 13.27065,6.65707 28.87,6.73498 42.29838,0.21123 14.50718,-7.04785 30.36467,-33.27231 38.04266,-62.91333 6.70038,-25.86698 6.39722,-46.46829 -1.08219,-73.54106 -1.54144,-5.57946 -3.01936,-11.62675 -3.28426,-13.43842 -0.58248,-3.98363 1.8479,-6.83939 5.82062,-6.83939 10.23077,0 44.68516,57.84872 57.31644,96.23394 8.53479,25.93643 9.56749,32.73372 9.60673,63.23272 0.0189,14.66667 -0.33299,27.97936 -0.78193,29.58376 -1.15219,4.11771 -4.94208,4.78442 -11.40137,2.00571 -9.74807,-4.1935 -18.41529,-5.62729 -26.44183,-4.37418 -15.44789,2.41174 -26.15802,11.16545 -30.28508,24.75289 -6.38251,21.01305 5.97486,39.61973 29.00735,43.67683 13.37993,2.35682 23.93448,-2.58196 40.0166,-18.72492 12.90241,-12.95125 22.36902,-26.76838 26.81882,-39.14382 2.61853,-7.28243 7.68164,-26.16152 10.48429,-39.09336 0.56867,-2.62392 4.37579,-4.08424 7.80791,-2.99493 2.6863,0.8526 3.97626,4.91703 5.43099,17.11202 3.17033,26.57674 2.25857,66.38237 -2.10116,91.73333 -2.24555,13.05743 -6.82019,29.20972 -11.47983,40.53333 -4.18646,10.17375 -5.43924,10.54291 -19.6602,5.79327 -13.83916,-4.62211 -21.14336,-4.82304 -29.77492,-0.81905 -16.54246,7.67368 -22.86594,21.6126 -16.96031,37.38577 2.80673,7.49642 7.10706,12.50114 14.0424,16.34254 5.44258,3.01459 6.31757,3.16414 18.51258,3.16414 12.78571,0 12.80953,-0.004 21.33334,-4.24959 16.01005,-7.97298 36.22708,-31.6291 51.75054,-60.5538 4.57707,-8.52838 6.93326,-10.31463 11.63665,-8.82182 3.38912,1.07565 3.56668,4.17312 1.14803,20.02768 -9.67663,63.43135 -38.66425,129.34921 -83.15931,189.10431 -25.5938,34.37145 -52.1152,61.01828 -112.29578,112.82687 -10.72607,9.23392 -16.53581,13.53301 -18.28835,13.53301 -3.78265,0 -72.94286,-23.09676 -93.99178,-31.3895 -32.69662,-12.88167 -72.14192,-33.75844 -92.90732,-49.17202 -10.71749,-7.9553 -41.90331,-39.08454 -49.66191,-49.57181 -17.67919,-23.89689 -25.10044,-44.49916 -27.63101,-76.70697 -3.96296,-50.43846 10.68316,-89.92684 42.92001,-115.7195 29.09418,-23.27822 68.77055,-29.50365 97.9469,-15.36836 13.53449,6.55715 26.48517,22.76462 32.6507,40.8615 2.37592,6.97379 2.99379,10.97786 3.38074,21.90903 0.54938,15.51915 -0.8549,22.82224 -6.65774,34.6243 -4.5566,9.26739 -14.96391,20.80715 -18.74407,20.78367 -5.31786,-0.0331 -5.78871,-1.14193 -6.4299,-15.14284 -0.51975,-11.34939 -0.99051,-13.9204 -3.50975,-19.16816 -5.44294,-11.33803 -14.7123,-16.93838 -29.35353,-17.73478 -33.35226,-1.81415 -54.06484,22.17666 -49.39941,57.21796 2.4363,18.29865 7.23668,27.28995 19.84674,37.1737 18.64009,14.61007 45.56309,22.25778 68.65159,19.50105 23.47628,-2.80302 41.13051,-12.04981 59.64225,-31.23896 17.37143,-18.00712 27.54686,-37.47462 32.4371,-62.0583 2.21866,-11.15346 1.92457,-39.27122 -0.52994,-50.66667 -6.40705,-29.74574 -20.6178,-56.27379 -41.15948,-76.83492 -16.30081,-16.31624 -31.13732,-25.69507 -51.2253,-32.38182 -32.02499,-10.66026 -64.26611,-6.70839 -101.81897,12.48018 -34.09965,17.42407 -68.39937,48.23515 -83.22225,74.7577 -5.23966,9.37533 -17.20826,35.91766 -20.97349,46.51219 -6.16155,17.33719 -7.45414,25.2916 -8.07071,49.66594 -0.63827,25.23121 0.26767,34.84083 5.02336,53.28524 4.60089,17.84404 10.84768,34.0681 21.34955,55.44882 13.54638,27.57896 26.78275,47.88275 44.56203,68.35536 6.94636,7.99863 38.85835,36.34853 59.95048,53.25864 22.80618,18.2843 45.89016,31.06399 78.92431,43.69384 10.26171,3.92334 19.01436,7.69407 19.45033,8.37942 2.16135,3.39754 0.734,7.33732 -4.77464,13.17896 -23.28691,24.69466 -65.36641,47.03983 -110.09934,58.46528 -29.61541,7.56422 -53.66391,9.79032 -86.60434,8.01692 z"
     id="path825"
     inkscape:connector-curvature="0" />
</svg>
